<svg id="visual" viewBox="0 0 900 600" width="900" height="600" xmlns="http://www.w3.org/2000/svg" xmlns:xlink="http://www.w3.org/1999/xlink" version="1.1"><path d="M0 500L6.5 503.3C13 506.7 26 513.3 39 455.7C52 398 65 276 78 227.8C91 179.7 104 205.3 117.2 231.2C130.3 257 143.7 283 156.8 321.2C170 359.3 183 409.7 196 430.8C209 452 222 444 235 404.8C248 365.7 261 295.3 274 281.5C287 267.7 300 310.3 313 289.8C326 269.3 339 185.7 352 223.7C365 261.7 378 421.3 391 459C404 496.7 417 412.3 430.2 402.8C443.3 393.3 456.7 458.7 469.8 443.8C483 429 496 334 509 291.5C522 249 535 259 548 315.7C561 372.3 574 475.7 587 438C600 400.3 613 221.7 626 183C639 144.3 652 245.7 665 333.7C678 421.7 691 496.3 704 458.3C717 420.3 730 269.7 743.2 254C756.3 238.3 769.7 357.7 782.8 428.5C796 499.3 809 521.7 822 455.2C835 388.7 848 233.3 861 215.8C874 198.3 887 318.7 893.5 378.8L900 439L900 0L893.5 0C887 0 874 0 861 0C848 0 835 0 822 0C809 0 796 0 782.8 0C769.7 0 756.3 0 743.2 0C730 0 717 0 704 0C691 0 678 0 665 0C652 0 639 0 626 0C613 0 600 0 587 0C574 0 561 0 548 0C535 0 522 0 509 0C496 0 483 0 469.8 0C456.7 0 443.3 0 430.2 0C417 0 404 0 391 0C378 0 365 0 352 0C339 0 326 0 313 0C300 0 287 0 274 0C261 0 248 0 235 0C222 0 209 0 196 0C183 0 170 0 156.8 0C143.7 0 130.3 0 117.2 0C104 0 91 0 78 0C65 0 52 0 39 0C26 0 13 0 6.5 0L0 0Z" fill="#7fa3f9"></path><path d="M0 129L6.5 144.5C13 160 26 191 39 214.2C52 237.3 65 252.7 78 231.3C91 210 104 152 117.2 116C130.3 80 143.7 66 156.8 108.3C170 150.7 183 249.3 196 242.2C209 235 222 122 235 139.5C248 157 261 305 274 361.7C287 418.3 300 383.7 313 327.8C326 272 339 195 352 183C365 171 378 224 391 231.8C404 239.7 417 202.3 430.2 170.8C443.3 139.3 456.7 113.7 469.8 128.5C483 143.3 496 198.7 509 255C522 311.3 535 368.7 548 405.8C561 443 574 460 587 405.3C600 350.7 613 224.3 626 227.8C639 231.3 652 364.7 665 356.3C678 348 691 198 704 179.5C717 161 730 274 743.2 280.8C756.3 287.7 769.7 188.3 782.8 170.7C796 153 809 217 822 267.7C835 318.3 848 355.7 861 339C874 322.3 887 251.7 893.5 216.3L900 181L900 0L893.5 0C887 0 874 0 861 0C848 0 835 0 822 0C809 0 796 0 782.8 0C769.7 0 756.3 0 743.2 0C730 0 717 0 704 0C691 0 678 0 665 0C652 0 639 0 626 0C613 0 600 0 587 0C574 0 561 0 548 0C535 0 522 0 509 0C496 0 483 0 469.8 0C456.7 0 443.3 0 430.2 0C417 0 404 0 391 0C378 0 365 0 352 0C339 0 326 0 313 0C300 0 287 0 274 0C261 0 248 0 235 0C222 0 209 0 196 0C183 0 170 0 156.8 0C143.7 0 130.3 0 117.2 0C104 0 91 0 78 0C65 0 52 0 39 0C26 0 13 0 6.5 0L0 0Z" fill="#84a4fa"></path><path d="M0 261L6.5 282.8C13 304.7 26 348.3 39 372.3C52 396.3 65 400.7 78 351.7C91 302.7 104 200.3 117.2 148.5C130.3 96.7 143.7 95.3 156.8 125.3C170 155.3 183 216.7 196 269.7C209 322.7 222 367.3 235 323.2C248 279 261 146 274 107.8C287 69.7 300 126.3 313 149.2C326 172 339 161 352 184.5C365 208 378 266 391 314.3C404 362.7 417 401.3 430.2 382.3C443.3 363.3 456.7 286.7 469.8 217C483 147.3 496 84.7 509 90.2C522 95.7 535 169.3 548 218.7C561 268 574 293 587 261.3C600 229.7 613 141.3 626 155.7C639 170 652 287 665 346.2C678 405.3 691 406.7 704 412.7C717 418.7 730 429.3 743.2 423.5C756.3 417.7 769.7 395.3 782.8 330.7C796 266 809 159 822 132.5C835 106 848 160 861 157.7C874 155.3 887 96.7 893.5 67.3L900 38L900 0L893.5 0C887 0 874 0 861 0C848 0 835 0 822 0C809 0 796 0 782.8 0C769.7 0 756.3 0 743.2 0C730 0 717 0 704 0C691 0 678 0 665 0C652 0 639 0 626 0C613 0 600 0 587 0C574 0 561 0 548 0C535 0 522 0 509 0C496 0 483 0 469.8 0C456.7 0 443.3 0 430.2 0C417 0 404 0 391 0C378 0 365 0 352 0C339 0 326 0 313 0C300 0 287 0 274 0C261 0 248 0 235 0C222 0 209 0 196 0C183 0 170 0 156.8 0C143.7 0 130.3 0 117.2 0C104 0 91 0 78 0C65 0 52 0 39 0C26 0 13 0 6.5 0L0 0Z" fill="#89a5fb"></path><path d="M0 39L6.5 72.5C13 106 26 173 39 199.2C52 225.3 65 210.7 78 173.7C91 136.7 104 77.3 117.2 108.5C130.3 139.7 143.7 261.3 156.8 276C170 290.7 183 198.3 196 159.7C209 121 222 136 235 174.2C248 212.3 261 273.7 274 287.3C287 301 300 267 313 239.8C326 212.7 339 192.3 352 204C365 215.7 378 259.3 391 235.2C404 211 417 119 430.2 108.8C443.3 98.7 456.7 170.3 469.8 187C483 203.7 496 165.3 509 136.2C522 107 535 87 548 112.2C561 137.3 574 207.7 587 260.3C600 313 613 348 626 324.3C639 300.7 652 218.3 665 201.7C678 185 691 234 704 226C717 218 730 153 743.2 132.3C756.3 111.7 769.7 135.3 782.8 185C796 234.7 809 310.3 822 335.2C835 360 848 334 861 284.2C874 234.3 887 160.7 893.5 123.8L900 87L900 0L893.5 0C887 0 874 0 861 0C848 0 835 0 822 0C809 0 796 0 782.8 0C769.7 0 756.3 0 743.2 0C730 0 717 0 704 0C691 0 678 0 665 0C652 0 639 0 626 0C613 0 600 0 587 0C574 0 561 0 548 0C535 0 522 0 509 0C496 0 483 0 469.8 0C456.7 0 443.3 0 430.2 0C417 0 404 0 391 0C378 0 365 0 352 0C339 0 326 0 313 0C300 0 287 0 274 0C261 0 248 0 235 0C222 0 209 0 196 0C183 0 170 0 156.8 0C143.7 0 130.3 0 117.2 0C104 0 91 0 78 0C65 0 52 0 39 0C26 0 13 0 6.5 0L0 0Z" fill="#8da6fb"></path><path d="M0 218L6.5 234.5C13 251 26 284 39 305.5C52 327 65 337 78 299.5C91 262 104 177 117.2 168.8C130.3 160.7 143.7 229.3 156.8 228.8C170 228.3 183 158.7 196 128.2C209 97.7 222 106.3 235 98C248 89.7 261 64.3 274 48.7C287 33 300 27 313 34.2C326 41.3 339 61.7 352 61.2C365 60.7 378 39.3 391 48C404 56.7 417 95.3 430.2 135C443.3 174.7 456.7 215.3 469.8 226C483 236.7 496 217.3 509 196.5C522 175.7 535 153.3 548 142.5C561 131.7 574 132.3 587 121.3C600 110.3 613 87.7 626 114.8C639 142 652 219 665 226.3C678 233.7 691 171.3 704 164.7C717 158 730 207 743.2 206C756.3 205 769.7 154 782.8 111.5C796 69 809 35 822 37.7C835 40.3 848 79.7 861 132.5C874 185.3 887 251.7 893.5 284.8L900 318L900 0L893.5 0C887 0 874 0 861 0C848 0 835 0 822 0C809 0 796 0 782.8 0C769.7 0 756.3 0 743.2 0C730 0 717 0 704 0C691 0 678 0 665 0C652 0 639 0 626 0C613 0 600 0 587 0C574 0 561 0 548 0C535 0 522 0 509 0C496 0 483 0 469.8 0C456.7 0 443.3 0 430.2 0C417 0 404 0 391 0C378 0 365 0 352 0C339 0 326 0 313 0C300 0 287 0 274 0C261 0 248 0 235 0C222 0 209 0 196 0C183 0 170 0 156.8 0C143.7 0 130.3 0 117.2 0C104 0 91 0 78 0C65 0 52 0 39 0C26 0 13 0 6.5 0L0 0Z" fill="#92a7fc"></path><path d="M0 55L6.5 86.2C13 117.3 26 179.7 39 196.7C52 213.7 65 185.3 78 168.3C91 151.3 104 145.7 117.2 122.7C130.3 99.7 143.7 59.3 156.8 43.7C170 28 183 37 196 46.5C209 56 222 66 235 73.3C248 80.7 261 85.3 274 78.5C287 71.7 300 53.3 313 77.5C326 101.7 339 168.3 352 197.2C365 226 378 217 391 197.5C404 178 417 148 430.2 142C443.3 136 456.7 154 469.8 162.3C483 170.7 496 169.3 509 184C522 198.7 535 229.3 548 210.7C561 192 574 124 587 120.5C600 117 613 178 626 171.5C639 165 652 91 665 76.5C678 62 691 107 704 122.3C717 137.7 730 123.3 743.2 112.5C756.3 101.7 769.7 94.3 782.8 86.7C796 79 809 71 822 84.3C835 97.7 848 132.3 861 169.2C874 206 887 245 893.5 264.5L900 284L900 0L893.5 0C887 0 874 0 861 0C848 0 835 0 822 0C809 0 796 0 782.8 0C769.7 0 756.3 0 743.2 0C730 0 717 0 704 0C691 0 678 0 665 0C652 0 639 0 626 0C613 0 600 0 587 0C574 0 561 0 548 0C535 0 522 0 509 0C496 0 483 0 469.8 0C456.7 0 443.3 0 430.2 0C417 0 404 0 391 0C378 0 365 0 352 0C339 0 326 0 313 0C300 0 287 0 274 0C261 0 248 0 235 0C222 0 209 0 196 0C183 0 170 0 156.8 0C143.7 0 130.3 0 117.2 0C104 0 91 0 78 0C65 0 52 0 39 0C26 0 13 0 6.5 0L0 0Z" fill="#97a8fd"></path><path d="M0 111L6.5 97.3C13 83.7 26 56.3 39 62.3C52 68.3 65 107.7 78 134.5C91 161.3 104 175.7 117.2 174.2C130.3 172.7 143.7 155.3 156.8 126C170 96.7 183 55.3 196 70.7C209 86 222 158 235 194.8C248 231.7 261 233.3 274 208.5C287 183.7 300 132.3 313 93.8C326 55.3 339 29.7 352 23.2C365 16.7 378 29.3 391 68.3C404 107.3 417 172.7 430.2 204.5C443.3 236.3 456.7 234.7 469.8 200C483 165.3 496 97.7 509 71C522 44.3 535 58.7 548 87C561 115.3 574 157.7 587 150C600 142.3 613 84.7 626 78.3C639 72 652 117 665 116.2C678 115.3 691 68.7 704 53.5C717 38.3 730 54.7 743.2 61.5C756.3 68.3 769.7 65.7 782.8 55.7C796 45.7 809 28.3 822 40.3C835 52.3 848 93.7 861 111C874 128.3 887 121.7 893.5 118.3L900 115L900 0L893.5 0C887 0 874 0 861 0C848 0 835 0 822 0C809 0 796 0 782.8 0C769.7 0 756.3 0 743.2 0C730 0 717 0 704 0C691 0 678 0 665 0C652 0 639 0 626 0C613 0 600 0 587 0C574 0 561 0 548 0C535 0 522 0 509 0C496 0 483 0 469.8 0C456.7 0 443.3 0 430.2 0C417 0 404 0 391 0C378 0 365 0 352 0C339 0 326 0 313 0C300 0 287 0 274 0C261 0 248 0 235 0C222 0 209 0 196 0C183 0 170 0 156.8 0C143.7 0 130.3 0 117.2 0C104 0 91 0 78 0C65 0 52 0 39 0C26 0 13 0 6.5 0L0 0Z" fill="#9ba9fe"></path><path d="M0 127L6.5 131.7C13 136.3 26 145.7 39 124.7C52 103.7 65 52.3 78 41.8C91 31.3 104 61.7 117.2 76.2C130.3 90.7 143.7 89.3 156.8 99.3C170 109.3 183 130.7 196 118C209 105.3 222 58.7 235 58.3C248 58 261 104 274 111.8C287 119.7 300 89.3 313 71C326 52.7 339 46.3 352 57C365 67.7 378 95.3 391 102.3C404 109.3 417 95.7 430.2 102.5C443.3 109.3 456.7 136.7 469.8 142C483 147.3 496 130.7 509 119.3C522 108 535 102 548 103.7C561 105.3 574 114.7 587 112.8C600 111 613 98 626 77.3C639 56.7 652 28.3 665 41.7C678 55 691 110 704 110.5C717 111 730 57 743.2 38.7C756.3 20.3 769.7 37.7 782.8 57C796 76.3 809 97.7 822 112C835 126.3 848 133.7 861 124.2C874 114.7 887 88.3 893.5 75.2L900 62L900 0L893.5 0C887 0 874 0 861 0C848 0 835 0 822 0C809 0 796 0 782.8 0C769.7 0 756.3 0 743.2 0C730 0 717 0 704 0C691 0 678 0 665 0C652 0 639 0 626 0C613 0 600 0 587 0C574 0 561 0 548 0C535 0 522 0 509 0C496 0 483 0 469.8 0C456.7 0 443.3 0 430.2 0C417 0 404 0 391 0C378 0 365 0 352 0C339 0 326 0 313 0C300 0 287 0 274 0C261 0 248 0 235 0C222 0 209 0 196 0C183 0 170 0 156.8 0C143.7 0 130.3 0 117.2 0C104 0 91 0 78 0C65 0 52 0 39 0C26 0 13 0 6.5 0L0 0Z" fill="#a0abfe"></path><path d="M0 71L6.5 70C13 69 26 67 39 66.5C52 66 65 67 78 58.5C91 50 104 32 117.2 26.8C130.3 21.7 143.7 29.3 156.8 30.2C170 31 183 25 196 24.8C209 24.7 222 30.3 235 35C248 39.7 261 43.3 274 55C287 66.7 300 86.3 313 89.8C326 93.3 339 80.7 352 76.2C365 71.7 378 75.3 391 82.7C404 90 417 101 430.2 89.7C443.3 78.3 456.7 44.7 469.8 41.2C483 37.7 496 64.3 509 64.3C522 64.3 535 37.7 548 26.3C561 15 574 19 587 27.7C600 36.3 613 49.7 626 55.8C639 62 652 61 665 60.8C678 60.7 691 61.3 704 56.5C717 51.7 730 41.3 743.2 49.5C756.3 57.7 769.7 84.3 782.8 97.2C796 110 809 109 822 105.3C835 101.7 848 95.3 861 91.8C874 88.3 887 87.7 893.5 87.3L900 87L900 0L893.5 0C887 0 874 0 861 0C848 0 835 0 822 0C809 0 796 0 782.8 0C769.7 0 756.3 0 743.2 0C730 0 717 0 704 0C691 0 678 0 665 0C652 0 639 0 626 0C613 0 600 0 587 0C574 0 561 0 548 0C535 0 522 0 509 0C496 0 483 0 469.8 0C456.7 0 443.3 0 430.2 0C417 0 404 0 391 0C378 0 365 0 352 0C339 0 326 0 313 0C300 0 287 0 274 0C261 0 248 0 235 0C222 0 209 0 196 0C183 0 170 0 156.8 0C143.7 0 130.3 0 117.2 0C104 0 91 0 78 0C65 0 52 0 39 0C26 0 13 0 6.5 0L0 0Z" fill="#a4acff"></path></svg>