<svg id="visual" viewBox="0 0 900 600" width="900" height="600" xmlns="http://www.w3.org/2000/svg" xmlns:xlink="http://www.w3.org/1999/xlink" version="1.1"><path d="M0 468L13.7 464.3C27.3 460.7 54.7 453.3 82 447.2C109.3 441 136.7 436 163.8 434.2C191 432.3 218 433.7 245.2 433.7C272.3 433.7 299.7 432.3 327 417.5C354.3 402.7 381.7 374.3 409 381.2C436.3 388 463.7 430 491 446.5C518.3 463 545.7 454 573 445C600.3 436 627.7 427 654.8 424C682 421 709 424 736.2 432.7C763.3 441.3 790.7 455.7 818 445C845.3 434.3 872.7 398.7 886.3 380.8L900 363L900 601L886.3 601C872.7 601 845.3 601 818 601C790.7 601 763.3 601 736.2 601C709 601 682 601 654.8 601C627.7 601 600.3 601 573 601C545.7 601 518.3 601 491 601C463.7 601 436.3 601 409 601C381.7 601 354.3 601 327 601C299.7 601 272.3 601 245.2 601C218 601 191 601 163.8 601C136.7 601 109.3 601 82 601C54.7 601 27.3 601 13.7 601L0 601Z" fill="#c2dfff"></path><path d="M0 422L13.7 422C27.3 422 54.7 422 82 418.2C109.3 414.3 136.7 406.7 163.8 402.3C191 398 218 397 245.2 412.7C272.3 428.3 299.7 460.7 327 462.5C354.3 464.3 381.7 435.7 409 422.7C436.3 409.7 463.7 412.3 491 418C518.3 423.7 545.7 432.3 573 432C600.3 431.7 627.7 422.3 654.8 416.5C682 410.7 709 408.3 736.2 404.8C763.3 401.3 790.7 396.7 818 406.2C845.3 415.7 872.7 439.3 886.3 451.2L900 463L900 601L886.3 601C872.7 601 845.3 601 818 601C790.7 601 763.3 601 736.2 601C709 601 682 601 654.8 601C627.7 601 600.3 601 573 601C545.7 601 518.3 601 491 601C463.7 601 436.3 601 409 601C381.7 601 354.3 601 327 601C299.7 601 272.3 601 245.2 601C218 601 191 601 163.8 601C136.7 601 109.3 601 82 601C54.7 601 27.3 601 13.7 601L0 601Z" fill="#b9d9ff"></path><path d="M0 458L13.7 455.3C27.3 452.7 54.7 447.3 82 451.2C109.3 455 136.7 468 163.8 477.3C191 486.7 218 492.3 245.2 496.8C272.3 501.3 299.7 504.7 327 495.7C354.3 486.7 381.7 465.3 409 452.7C436.3 440 463.7 436 491 438.5C518.3 441 545.7 450 573 450.5C600.3 451 627.7 443 654.8 452.8C682 462.7 709 490.3 736.2 498.5C763.3 506.7 790.7 495.3 818 493.7C845.3 492 872.7 500 886.3 504L900 508L900 601L886.3 601C872.7 601 845.3 601 818 601C790.7 601 763.3 601 736.2 601C709 601 682 601 654.8 601C627.7 601 600.3 601 573 601C545.7 601 518.3 601 491 601C463.7 601 436.3 601 409 601C381.7 601 354.3 601 327 601C299.7 601 272.3 601 245.2 601C218 601 191 601 163.8 601C136.7 601 109.3 601 82 601C54.7 601 27.3 601 13.7 601L0 601Z" fill="#b1d2ff"></path><path d="M0 491L13.7 501C27.3 511 54.7 531 82 534.2C109.3 537.3 136.7 523.7 163.8 511.8C191 500 218 490 245.2 492.3C272.3 494.7 299.7 509.3 327 511.8C354.3 514.3 381.7 504.7 409 498.7C436.3 492.7 463.7 490.3 491 499.2C518.3 508 545.7 528 573 530.5C600.3 533 627.7 518 654.8 514.3C682 510.7 709 518.3 736.2 521.8C763.3 525.3 790.7 524.7 818 517.7C845.3 510.7 872.7 497.3 886.3 490.7L900 484L900 601L886.3 601C872.7 601 845.3 601 818 601C790.7 601 763.3 601 736.2 601C709 601 682 601 654.8 601C627.7 601 600.3 601 573 601C545.7 601 518.3 601 491 601C463.7 601 436.3 601 409 601C381.7 601 354.3 601 327 601C299.7 601 272.3 601 245.2 601C218 601 191 601 163.8 601C136.7 601 109.3 601 82 601C54.7 601 27.3 601 13.7 601L0 601Z" fill="#aacbff"></path><path d="M0 529L13.7 534C27.3 539 54.7 549 82 557.2C109.3 565.3 136.7 571.7 163.8 566.8C191 562 218 546 245.2 543.7C272.3 541.3 299.7 552.7 327 553.7C354.3 554.7 381.7 545.3 409 542.7C436.3 540 463.7 544 491 545.7C518.3 547.3 545.7 546.7 573 543.8C600.3 541 627.7 536 654.8 540.2C682 544.3 709 557.7 736.2 560.3C763.3 563 790.7 555 818 553.7C845.3 552.3 872.7 557.7 886.3 560.3L900 563L900 601L886.3 601C872.7 601 845.3 601 818 601C790.7 601 763.3 601 736.2 601C709 601 682 601 654.8 601C627.7 601 600.3 601 573 601C545.7 601 518.3 601 491 601C463.7 601 436.3 601 409 601C381.7 601 354.3 601 327 601C299.7 601 272.3 601 245.2 601C218 601 191 601 163.8 601C136.7 601 109.3 601 82 601C54.7 601 27.3 601 13.7 601L0 601Z" fill="#a4c4ff"></path></svg>